<svg width="38" height="31" viewBox="0 0 38 31" fill="none" xmlns="http://www.w3.org/2000/svg">
<path fill-rule="evenodd" clip-rule="evenodd" d="M34.638 3.30325C35.5902 4.03871 36.3332 4.91968 36.8194 5.88977C37.38 7.04068 37.6792 8.25776 37.7036 9.48734C37.8212 11.0403 37.8212 11.5433 37.8212 15.5076C37.8212 19.4719 37.7939 19.9668 37.7036 21.5279C37.6721 22.7417 37.376 23.9393 36.8236 25.0752C36.3368 26.0451 35.5935 26.9261 34.6414 27.6617C33.6893 28.3974 32.5491 28.9716 31.2937 29.3478C29.824 29.7731 28.2716 30.003 26.7025 30.0277C24.6968 30.1169 24.0394 30.1169 18.9106 30.1169C13.7818 30.1169 13.1412 30.0958 11.1187 30.0277C9.5464 29.9877 7.99445 29.7408 6.52966 29.2975C5.27385 28.9219 4.13323 28.3481 3.18069 27.6127C2.22814 26.8773 1.48462 25.9965 0.997617 25.0265C0.445252 23.889 0.149117 22.6914 0.117614 21.4776C0 19.9247 0 19.42 0 15.4573C0 11.493 0.0273032 10.9981 0.117614 9.43703C0.148308 8.2246 0.445892 7.02504 0.997617 5.88977C1.48325 4.91942 2.22606 4.03823 3.17837 3.30272C4.13069 2.56721 5.27148 1.99363 6.52756 1.61878C7.99513 1.19136 9.54643 0.960858 11.1145 0.937236C13.1202 0.849609 13.7776 0.849609 18.9064 0.849609C24.0352 0.849609 24.6758 0.869082 26.6983 0.937236C28.2676 0.96213 29.82 1.19258 31.2895 1.61878C32.5452 1.99407 33.6857 2.5678 34.638 3.30325ZM33.6081 24.0967C34.0268 23.2192 34.2478 22.2927 34.2613 21.3575V21.3591H34.2844C34.3747 19.8079 34.3747 19.3827 34.3747 15.4302V15.4297C34.3747 11.4752 34.3516 11.0419 34.2613 9.49869C34.2418 8.57401 34.0209 7.65845 33.6081 6.79038C33.2925 6.15926 32.8096 5.58609 32.1904 5.10767C31.5712 4.62925 30.8294 4.25614 30.0125 4.01229C28.8896 3.68948 27.7031 3.51876 26.5051 3.50762C24.4742 3.41837 23.9491 3.41837 18.8308 3.41837C13.7125 3.41837 13.1517 3.43784 11.1544 3.50762C9.95732 3.52054 8.77187 3.69122 7.6491 4.01229C5.992 4.50235 4.67935 5.51005 4.03877 6.79038C3.6201 7.66733 3.39917 8.59325 3.3856 9.5279C3.27428 11.1003 3.27428 11.5044 3.27428 15.4589C3.27428 19.4119 3.29529 19.8468 3.3856 21.3883C3.40515 22.313 3.62596 23.2286 4.03877 24.0967C4.35556 24.7289 4.8406 25.3027 5.46251 25.781C6.08442 26.2592 6.82934 26.6313 7.6491 26.8731C8.77131 27.1958 9.95711 27.3665 11.1544 27.3778C13.1874 27.467 13.7104 27.467 18.8308 27.467C23.947 27.467 24.5099 27.4492 26.5051 27.3778C27.703 27.3659 28.8894 27.1952 30.0125 26.8731C30.8294 26.6298 31.5714 26.2571 32.1906 25.7789C32.8099 25.3007 33.2927 24.7277 33.6081 24.0967ZM28.9919 9.41772C30.2423 9.41772 31.2559 8.6345 31.2559 7.66833C31.2559 6.70217 30.2423 5.91895 28.9919 5.91895C27.7414 5.91895 26.7278 6.70217 26.7278 7.66833C26.7278 8.6345 27.7414 9.41772 28.9919 9.41772ZM18.8959 7.94434C16.3202 7.94434 13.8501 8.73486 12.0288 10.142C10.2076 11.5491 9.18439 13.4576 9.18439 15.4476C9.18439 17.4376 10.2076 19.3461 12.0288 20.7533C13.8501 22.1604 16.3202 22.9509 18.8959 22.9509C21.4716 22.9509 23.9417 22.1604 25.763 20.7533C27.5842 19.3461 28.6074 17.4376 28.6074 15.4476C28.6074 13.4576 27.5842 11.5491 25.763 10.142C23.9417 8.73486 21.4716 7.94434 18.8959 7.94434ZM18.8959 20.3206C17.2226 20.3206 15.6179 19.807 14.4347 18.8928C13.2515 17.9787 12.5868 16.7388 12.5868 15.446C12.5868 14.1532 13.2515 12.9133 14.4347 11.9992C15.6179 11.085 17.2226 10.5715 18.8959 10.5715C20.5692 10.5715 22.1739 11.085 23.3571 11.9992C24.5403 12.9133 25.205 14.1532 25.205 15.446C25.205 16.7388 24.5403 17.9787 23.3571 18.8928C22.1739 19.807 20.5692 20.3206 18.8959 20.3206Z" fill="url(#paint0_linear_1_17802)"/>
<defs>
<linearGradient id="paint0_linear_1_17802" x1="31.6473" y1="2.20804" x2="11.0281" y2="33.0023" gradientUnits="userSpaceOnUse">
<stop offset="0.17301" stop-color="#E89C93"/>
<stop offset="0.688933" stop-color="#B78E80"/>
<stop offset="1" stop-color="#FFAF00"/>
</linearGradient>
</defs>
</svg>
