<svg width="27" height="29" viewBox="0 0 27 29" fill="none" xmlns="http://www.w3.org/2000/svg">
<path d="M11.0367 19.374C10.1284 23.2834 9.02155 27.031 5.7389 28.9885C4.72699 23.0804 7.22567 18.6444 8.38781 13.9343C6.40717 11.1946 8.62611 5.68398 12.7998 7.04247C17.937 8.71185 8.35155 17.2234 14.7856 18.2881C21.5046 19.3967 24.2468 8.70617 20.08 5.22973C14.0621 0.207402 2.55985 5.1119 3.97583 12.3019C4.31946 14.0592 6.52804 14.5916 4.85823 17.0176C1.00573 16.3163 -0.144319 13.8179 0.00418567 10.4877C0.242484 5.03667 5.95993 1.22237 11.6964 0.692884C18.9507 0.0242823 25.7594 2.88323 26.7005 8.49182C27.7591 14.8244 23.4265 21.6836 15.668 21.1896C13.5648 21.0547 12.6841 20.1973 11.0367 19.374Z" fill="url(#paint0_linear_1_17796)"/>
<defs>
<linearGradient id="paint0_linear_1_17796" x1="24.8925" y1="-1.20146" x2="-3.226" y2="18.9766" gradientUnits="userSpaceOnUse">
<stop stop-color="#E89B93"/>
<stop offset="1" stop-color="#E89B93"/>
</linearGradient>
</defs>
</svg>
