<svg width="39" height="31" viewBox="0 0 39 31" fill="none" xmlns="http://www.w3.org/2000/svg">
<path d="M9.45324 5.8134C8.50769 7.5539 8.88118 10.6723 9.03247 12.8531C8.01127 13.318 6.70011 12.5022 5.95785 12.5022C5.18565 12.5022 4.26374 12.9191 4.11876 13.5408C4.01475 13.9888 4.25901 14.6415 6.01143 15.21C6.68908 15.4302 8.30124 15.6892 8.67473 16.4118C9.19951 17.4271 5.97992 22.1138 0.924373 22.7975C0.733502 22.8235 0.561012 22.9064 0.440015 23.0305C0.319019 23.1545 0.258042 23.3109 0.268791 23.4696C0.357043 24.7323 3.802 25.227 5.32906 25.4212C5.48508 25.5948 5.61115 26.3277 5.81129 26.8859C5.90112 27.1358 6.13278 27.435 6.72848 27.435C7.5054 27.435 8.79608 26.9429 11.0433 27.2485C13.2465 27.5502 15.3172 30.1169 19.2933 30.1169C22.9888 30.1169 25.1935 27.5386 27.3147 27.2485C28.5423 27.0814 29.5966 27.1345 30.7754 27.3236C31.587 27.4544 32.3151 27.5269 32.5467 26.8716C32.75 26.3057 32.8745 25.587 33.0274 25.4173C34.5403 25.2244 38.001 24.731 38.0877 23.4683C38.0984 23.3096 38.0374 23.1532 37.9164 23.0292C37.7954 22.9051 37.6229 22.8222 37.4321 22.7962C32.4616 22.1228 29.1443 17.4504 29.6817 16.4105C30.0536 15.6892 31.6548 15.4328 32.345 15.2087C33.6278 14.793 34.2708 14.2815 34.2566 13.6897C34.2393 12.9321 33.1298 12.4801 32.3135 12.4801C31.483 12.4801 30.29 13.2882 29.324 12.8505C29.4753 10.6516 29.8472 7.54743 28.9032 5.80822C27.1145 2.515 23.1354 0.849609 19.1577 0.849609C15.2053 0.849609 11.2561 2.49169 9.45324 5.8134Z" fill="url(#paint0_linear_1_17807)"/>
<defs>
<linearGradient id="paint0_linear_1_17807" x1="35.3215" y1="-1.00451" x2="4.73112" y2="28.9731" gradientUnits="userSpaceOnUse">
<stop stop-color="#E89B93"/>
<stop offset="1" stop-color="#E89B93"/>
</linearGradient>
</defs>
</svg>
