<svg width="39" height="31" viewBox="0 0 39 31" fill="none" xmlns="http://www.w3.org/2000/svg">
<path d="M38.0546 4.32125C36.6638 4.90791 35.1696 5.30431 33.5989 5.48347C35.2196 4.56034 36.4321 3.10744 37.0102 1.39587C35.4875 2.25682 33.821 2.86283 32.0831 3.18757C30.9144 1.99976 29.3665 1.21246 27.6796 0.947903C25.9927 0.683347 24.2612 0.956334 22.754 1.72448C21.2467 2.49263 20.0481 3.71296 19.3442 5.19602C18.6402 6.67907 18.4703 8.34187 18.8608 9.92625C15.7755 9.77878 12.7571 9.01542 10.0017 7.68568C7.24633 6.35595 4.81546 4.48958 2.86686 2.20768C2.20058 3.30173 1.81747 4.57018 1.81747 5.92109C1.81673 7.13722 2.13134 8.33472 2.7334 9.40734C3.33546 10.48 4.20635 11.3945 5.26879 12.0699C4.03664 12.0326 2.83167 11.7157 1.75418 11.1456V11.2407C1.75405 12.9464 2.37387 14.5995 3.50846 15.9197C4.64304 17.2399 6.22252 18.1457 7.97887 18.4836C6.83585 18.778 5.63747 18.8214 4.47425 18.6104C4.96979 20.0781 5.93506 21.3614 7.23492 22.2809C8.53478 23.2004 10.1042 23.7099 11.7234 23.7382C8.97468 25.7921 5.58009 26.9063 2.08565 26.9014C1.46665 26.9015 0.848166 26.8671 0.233398 26.7983C3.78045 28.9693 7.90948 30.1214 12.1264 30.1169C26.4014 30.1169 34.2052 18.8625 34.2052 9.10175C34.2052 8.78464 34.1969 8.46435 34.1819 8.14724C35.6998 7.1023 37.0101 5.80835 38.0513 4.32601L38.0546 4.32125Z" fill="url(#paint0_linear_1_17798)"/>
<defs>
<linearGradient id="paint0_linear_1_17798" x1="2.07834" y1="3.06683" x2="22.379" y2="26.477" gradientUnits="userSpaceOnUse">
<stop stop-color="#E89B93"/>
<stop offset="1" stop-color="#E89B93"/>
</linearGradient>
</defs>
</svg>
